<svg width="240" height="237" viewBox="0 0 240 237" fill="none" xmlns="http://www.w3.org/2000/svg">
<path d="M56.1166 10.9204C50.7101 12.6373 43.7062 19.9953 41.1258 26.6175C39.4056 31.1549 38.9141 35.9376 38.9141 49.7951C38.9141 59.4831 38.6683 67.3317 38.2997 67.3317C37.9311 67.3317 32.4017 65.2469 26.0121 62.549C19.6226 59.9737 14.0932 58.0115 13.8475 58.2568C13.6017 58.5021 16.0592 64.5111 19.254 71.6238L25.2749 84.6229L18.5167 91.613C14.8305 95.4147 11.5128 98.7257 11.0213 98.971C7.94944 100.443 11.6357 103.018 24.4148 108.414L38.7912 114.545L38.9141 169.362C38.9141 226.264 39.1598 229.33 43.8291 225.528C45.4265 224.179 45.6722 217.189 45.6722 170.834C45.6722 141.525 45.918 117.611 46.1637 117.611C46.4095 117.611 51.816 119.819 58.0826 122.394L69.6329 127.177L69.7558 174.758C70.0016 231.047 69.7558 226.755 72.0904 226.755C73.6878 226.755 73.9336 215.595 73.9336 133.554C73.9336 54.7005 73.6878 40.3524 72.2133 40.3524C69.7558 40.3524 69.6329 41.5787 69.6329 62.0584L69.7558 80.576L65.3323 78.7365C62.9977 77.7555 57.5911 75.5481 53.4134 73.8312L45.6722 70.7654V52.1252C45.6722 35.2018 45.918 32.9944 48.4983 28.0891C53.6591 17.9105 64.2264 14.8447 72.8277 20.9763C81.9205 27.5985 81.5519 22.4479 81.5519 127.545L81.6747 221.727L84.5009 224.425L87.327 227L141.761 189.72C171.742 169.117 202.216 148.27 209.588 143.242C216.961 138.214 224.579 132.695 226.422 130.856C230.723 127.054 231.214 121.536 227.528 118.224C226.176 116.998 199.512 98.4805 168.302 77.0197C136.969 55.6815 106.004 34.3434 99.3688 29.6833C92.8564 25.1459 86.0983 20.4858 84.378 19.5047C82.7806 18.5237 79.2172 16.071 76.3911 14.1089C70.9846 10.1846 62.629 8.9583 56.1166 10.9204Z" fill="black"/>
<path d="M54 55.5C54 68.9702 54.2286 70.3172 55.9429 69.9499C57.7714 69.5825 58 67.8681 58 55.5C58 43.1319 57.7714 41.4175 56.0571 41.0501C54.2286 40.6828 54 42.0298 54 55.5Z" fill="black"/>
<path d="M54.8105 127.833C54.3474 128.204 54 150.803 54 177.849C54 220.702 54.2316 227 55.7368 227C56.6631 227 57.5894 226.259 57.5894 225.395C58.0525 221.072 58.1683 129.809 57.7052 128.451C57.1262 126.845 55.9684 126.475 54.8105 127.833Z" fill="black"/>
</svg>
