<?xml version="1.0" standalone="no"?>
<!DOCTYPE svg PUBLIC "-//W3C//DTD SVG 20010904//EN"
 "http://www.w3.org/TR/2001/REC-SVG-20010904/DTD/svg10.dtd">
<svg version="1.0" xmlns="http://www.w3.org/2000/svg"
 width="180.000000pt" height="180.000000pt" viewBox="0 0 180.000000 180.000000"
 preserveAspectRatio="xMidYMid meet">
<metadata>
Created by potrace 1.14, written by Peter Selinger 2001-2017
</metadata>
<g transform="translate(0.000000,180.000000) scale(0.100000,-0.100000)"
fill="#000000" stroke="none">
<path d="M385 1780 c-44 -14 -101 -74 -122 -128 -14 -37 -18 -76 -18 -189 0
-79 -2 -143 -5 -143 -3 0 -48 17 -100 39 -52 21 -97 37 -99 35 -2 -2 18 -51
44 -109 l49 -106 -55 -57 c-30 -31 -57 -58 -61 -60 -25 -12 5 -33 109 -77
l117 -50 1 -447 c0 -464 2 -489 40 -458 13 11 15 68 15 446 0 239 2 434 4 434
2 0 46 -18 97 -39 l94 -39 1 -388 c2 -459 0 -424 19 -424 13 0 15 91 15 760 0
643 -2 760 -14 760 -20 0 -21 -10 -21 -177 l1 -151 -36 15 c-19 8 -63 26 -97
40 l-63 25 0 152 c0 138 2 156 23 196 42 83 128 108 198 58 74 -54 71 -12 71
-869 l1 -768 23 -22 23 -21 443 304 c244 168 492 338 552 379 60 41 122 86
137 101 35 31 39 76 9 103 -11 10 -228 161 -482 336 -255 174 -507 348 -561
386 -53 37 -108 75 -122 83 -13 8 -42 28 -65 44 -44 32 -112 42 -165 26z"/>
<path d="M370 1420 c0 -110 2 -121 17 -118 16 3 18 17 18 118 0 101 -2 115
-17 118 -16 3 -18 -8 -18 -118z"/>
<path d="M377 823 c-4 -3 -7 -186 -7 -405 0 -347 2 -398 15 -398 8 0 16 6 16
13 4 35 5 774 1 785 -5 13 -15 16 -25 5z"/>
</g>
</svg>
